DataRate=2000.000000
DataType=double
version=3
OpenSimVersion=4.3-2021-08-27-4bc7ad9
endheader
time	f1_1	f1_2	f1_3	p1_1	p1_2	p1_3	m1_1	m1_2	m1_3	f2_1	f2_2	f2_3	p2_1	p2_2	p2_3	m2_1	m2_2	m2_3	f3_1	f3_2	f3_3	p3_1	p3_2	p3_3	m3_1	m3_2	m3_3	f4_1	f4_2	f4_3	p4_1	p4_2	p4_3	m4_1	m4_2	m4_3
0	-0	0	0	-300	2252	0	0	0	0	-5.022767543792725	-58.43845748901367	388.1120300292969	-300	1351	0	-90170.625	34815.23828125	524.5016479492188	6.271675374188772	59.40551403757144	421.0768432617188	-300	450.0000000000007	0	83643.20873174543	50461.78490616079	-6318.16552734375	-0	0	0	305	450.0000000000007	0	0	0	0
0.0005	-0	0	0	-300	2252	0	0	0	0	-4.852652072906494	-58.121337890625	387.4713745117188	-300	1351	0	-90195.796875	34948.171875	603.6787719726562	6.036528851302793	59.41384151142371	420.1678161621094	-300	450.0000000000007	0	83468.03685503983	50500.80442975379	-6230.41064453125	-0	0	0	305	450.0000000000007	0	0	0	0
0.001	-0	0	0	-300	2252	0	0	0	0	-4.960471630096436	-58.22489547729492	388.341552734375	-300	1351	0	-90050	34964.78125	604.93359375	6.059086586928829	59.40965678950935	419.6802368164062	-300	450.0000000000007	0	83441.27904932926	50345.48020983416	-6266.22509765625	-0	0	0	305	450.0000000000007	0	0	0	0
0.0015	-0	0	0	-300	2252	0	0	0	0	-4.910693168640137	-58.14821624755859	388.2841796875	-300	1351	0	-89907.4453125	34764.73046875	537.6700439453125	5.947772773236177	59.26798655759288	420.5895080566406	-300	450.0000000000007	0	83500.13842011163	50441.96849365699	-6423.4951171875	-0	0	0	305	450.0000000000007	0	0	0	0
0.002	-0	0	0	-300	2252	0	0	0	0	-4.933588981628418	-58.31418609619141	388.2516784667969	-300	1351	0	-90025.4296875	34589.4765625	545.0340576171875	5.970439229078753	59.23304393163055	421.0768432617188	-300	450.0000000000007	0	83607.56810743421	50446.02709210289	-6408.361328125	-0	0	0	305	450.0000000000007	0	0	0	0
0.0025	-0	0	0	-300	2252	0	0	0	0	-4.937685966491699	-58.35344314575195	387.3478088378906	-300	1351	0	-90317.6015625	34912.2890625	603.4788818359375	6.032330773463815	59.49387004517575	419.9402465820312	-300	450.0000000000007	0	83710.20872772329	50553.80053408945	-6328.3203125	-0	0	0	305	450.0000000000007	0	0	0	0
0.003	-0	0	0	-300	2252	0	0	0	0	-4.790389060974121	-58.11715698242188	387.4220275878906	-300	1351	0	-90113.984375	34917.203125	490.8052062988281	6.147828841563654	59.44465282610324	419.5583801269531	-300	450.0000000000007	0	83859.18529357012	50477.23413435143	-6327.02490234375	-0	0	0	305	450.0000000000007	0	0	0	0
0.0035	-0	0	0	-300	2252	0	0	0	0	-4.786243438720703	-58.02389526367188	387.3316345214844	-300	1351	0	-90031.671875	34814.37109375	400.4477844238281	6.209752354507518	59.23719814741352	419.9075012207031	-300	450.0000000000007	0	83917.09154396386	50468.22632438259	-6298.8583984375	-0	0	0	305	450.0000000000007	0	0	0	0
0.004	-0	0	0	-300	2252	0	0	0	0	-4.933524608612061	-57.96586608886719	387.5450744628906	-300	1351	0	-90031.46875	35091.078125	485.4410705566406	5.978820118972665	59.23301341441876	420.2566223144531	-300	450.0000000000007	0	83530.43529163384	50521.53099498131	-6297.2890625	-0	0	0	305	450.0000000000007	0	0	0	0
0.004500000000000001	-0	0	0	-300	2252	0	0	0	0	-4.879647731781006	-58.39890670776367	387.7915649414062	-300	1351	0	-90033.3671875	35001.6171875	536.1251831054688	6.085809496297654	59.3787997044958	419.9241333007812	-300	450.0000000000007	0	83502.60716854365	50477.8395875149	-6365.59423828125	-0	0	0	305	450.0000000000007	0	0	0	0
0.005	-0	0	0	-300	2252	0	0	0	0	-4.991555213928223	-58.47377395629883	387.7915649414062	-300	1351	0	-90213.3046875	34769.94140625	402.8132019042969	6.03660085506032	59.38303401630967	419.6802368164062	-300	450.0000000000007	0	83637.85717261871	50384.61303092686	-6280.84228515625	-0	0	0	305	450.0000000000007	0	0	0	0
0.0055	-0	0	0	-300	2252	0	0	0	0	-4.852781295776367	-58.38041687011719	387.7915649414062	-300	1351	0	-90214.2421875	34661.85546875	331.4560852050781	6.059038436422946	59.17980602046428	420.1344909667969	-300	450.0000000000007	0	83607.05248860897	50304.76537333035	-6257.3203125	-0	0	0	305	450.0000000000007	0	0	0	0
0.006	-0	0	0	-300	2252	0	0	0	0	-4.844249725341797	-58.55439758300781	388.0213928222656	-300	1351	0	-90045.75	34602.30078125	388.3965759277344	6.00563935447183	59.08721187140161	420.8327331542969	-300	450.0000000000007	0	83708.17748606858	50362.88256525066	-6297.333984375	-0	0	0	305	450.0000000000007	0	0	0	0
0.006500000000000001	-0	0	0	-300	2252	0	0	0	0	-4.84853982925415	-58.47384643554688	388.144775390625	-300	1351	0	-89970.4140625	34773.37109375	419.10595703125	6.116699491967372	59.2020914844105	421.7580871582031	-300	450.0000000000007	0	83741.482178684	50245.85522295646	-6327.0458984375	-0	0	0	305	450.0000000000007	0	0	0	0
0.007	-0	0	0	-300	2252	0	0	0	0	-5.04948902130127	-58.55434799194336	387.225830078125	-300	1351	0	-89887.1640625	34697.26953125	495.0746154785156	6.325122616890628	59.49358395567917	420.9891052246094	-300	450.0000000000007	0	83605.20092446842	50342.29662324941	-6337.4921875	-0	0	0	305	450.0000000000007	0	0	0	0
0.0075	-0	0	0	-300	2252	0	0	0	0	-5.174209594726562	-58.70577621459961	387.65087890625	-300	1351	0	-90068.2734375	34869.36328125	516.7822265625	6.15646483179613	59.6171419927405	421.0595703125	-300	450.0000000000007	0	83671.58373872831	50302.0349074011	-6318.05419921875	-0	0	0	305	450.0000000000007	0	0	0	0
0.008	-0	0	0	-300	2252	0	0	0	0	-5.058180809020996	-58.56304931640625	388.8337707519531	-300	1351	0	-90002.6875	34775.9765625	411.6246337890625	5.974661617873965	59.33005931267449	420.7450866699219	-300	450.0000000000007	0	83810.59936519025	50268.58960097767	-6423.32470703125	-0	0	0	305	450.0000000000007	0	0	0	0
0.008500000000000001	-0	0	0	-300	2252	0	0	0	0	-4.879776000976562	-58.17977523803711	386.9078369140625	-300	1351	0	-89841.6015625	34834.96875	455.9209594726562	5.712974820208744	59.23294092355025	419.6977233886719	-300	450.0000000000007	0	83550.30247708691	50568.35912084973	-6369.7548828125	-0	0	0	305	450.0000000000007	0	0	0	0
0.009000000000000001	-0	0	0	-300	2252	0	0	0	0	-4.933364391326904	-58.25568008422852	386.1317138671875	-300	1351	0	-90216.8125	35056.5078125	411.9324951171875	5.531123436851557	59.14905572273017	419.5580139160156	-300	450.0000000000007	0	83426.72435367845	50531.94895919796	-6365.18603515625	-0	0	0	305	450.0000000000007	0	0	0	0
0.0095	-0	0	0	-300	2252	0	0	0	0	-5.169807434082031	-58.38041687011719	385.9195556640625	-300	1351	0	-90041.7890625	35017.48046875	455.6842041015625	6.192001129118728	59.43166378384462	420.361083984375	-300	450.0000000000007	0	83551.86497647189	50582.42943341803	-6338.89697265625	-0	0	0	305	450.0000000000007	0	0	0	0
0.01	-0	0	0	-300	2252	0	0	0	0	-4.915378570556641	-58.14859771728516	387.0503540039062	-300	1351	0	-90035.4375	34748.5078125	469.0507507324219	6.333947926161039	59.33009366065478	420.7277221679688	-300	450.0000000000007	0	83635.62279643901	50411.6013120792	-6192.18603515625	-0	0	0	305	450.0000000000007	0	0	0	0
0.0105	-0	0	0	-300	2252	0	0	0	0	-5.018151760101318	-58.08184051513672	387.5619812011719	-300	1351	0	-89798.8828125	34574.62109375	334.5571594238281	6.209752349675728	59.34773663007954	420.7277221679688	-300	450.0000000000007	0	83702.62279575842	50427.17162750786	-6187.634765625	-0	0	0	305	450.0000000000007	0	0	0	0
0.011	-0	0	0	-300	2252	0	0	0	0	-5.000236988067627	-58.17096328735352	386.5200805664062	-300	1351	0	-89702.765625	34609.7578125	368.1475524902344	6.267398135824397	59.6126749870915	420.7277221679688	-300	450.0000000000007	0	83740.38061309843	50316.44506665831	-6353.6982421875	-0	0	0	305	450.0000000000007	0	0	0	0
0.0115	-0	0	0	-300	2252	0	0	0	0	-5.022543907165527	-58.02836227416992	388.0916442871094	-300	1351	0	-89873.5078125	34459.68359375	229.3665771484375	6.183187264135206	59.59069088306873	420.5008544921875	-300	450.0000000000007	0	83567.4274840838	50408.28880909829	-6272.16943359375	-0	0	0	305	450.0000000000007	0	0	0	0
0.012	-0	0	0	-300	2252	0	0	0	0	-4.911074638366699	-58.2243766784668	388.7452392578125	-300	1351	0	-89824.484375	34426.10546875	354.9143371582031	6.063411494745095	59.52881648818472	420.1517333984375	-300	450.0000000000007	0	83685.70873759694	50327.91772051853	-6304.6015625	-0	0	0	305	450.0000000000007	0	0	0	0
0.0125	-0	0	0	-300	2252	0	0	0	0	-4.585500240325928	-58.43832778930664	388.4979248046875	-300	1351	0	-90029.015625	34486.72265625	496.6852416992188	6.147574683679421	59.52881649186362	420.2561950683594	-300	450.0000000000007	0	83672.77124721071	50107.98021995301	-6309.21533203125	-0	0	0	305	450.0000000000007	0	0	0	0
0.013	-0	0	0	-300	2252	0	0	0	0	-5.040113925933838	-58.35372924804688	388.2684936523438	-300	1351	0	-90165.6953125	34495.89453125	582.8710327148438	6.152138482091162	59.75826290319592	421.058837890625	-300	450.0000000000007	0	83702.37280579837	50197.48412749694	-6297.2392578125	-0	0	0	305	450.0000000000007	0	0	0	0
0.0135	-0	0	0	-300	2252	0	0	0	0	-5.06287670135498	-58.11758804321289	386.9976196289062	-300	1351	0	-89888.734375	34592.36328125	548.0512084960938	6.121041551433633	59.65269115501046	420.7458190917969	-300	450.0000000000007	0	83614.00561135203	50356.39818613428	-6307.642578125	-0	0	0	305	450.0000000000007	0	0	0	0
